<svg version="1.1" viewBox="9.76 11.36 80 77.60000000000001" xmlns:xlink="http://www.w3.org/1999/xlink" xmlns="http://www.w3.org/2000/svg" style="max-height: 500px" width="80" height="77.60000000000001">
<g id="surface1">
<path d="M 55.148438 13.246094 C 55.523438 13.289062 55.882812 13.289062 56.257812 13.269531 C 56.445312 13.28125 56.445312 13.28125 56.738281 13.476562 C 56.949219 13.539062 56.949219 13.539062 57.1875 13.582031 C 57.277344 13.601562 57.367188 13.617188 57.457031 13.636719 C 57.554688 13.65625 57.652344 13.675781 57.75 13.695312 C 59.558594 14.078125 61.285156 14.625 63.023438 15.238281 C 63.769531 15.519531 63.769531 15.519531 64.550781 15.625 C 64.550781 15.722656 64.550781 15.820312 64.550781 15.917969 C 64.734375 15.972656 64.734375 15.972656 64.921875 16.03125 C 65.480469 16.21875 65.996094 16.472656 66.523438 16.734375 C 66.625 16.785156 66.722656 16.835938 66.828125 16.890625 C 67.816406 17.394531 68.769531 17.953125 69.71875 18.53125 C 69.917969 18.65625 69.917969 18.65625 70.128906 18.753906 C 70.382812 18.882812 70.582031 19.058594 70.800781 19.238281 C 70.9375 19.339844 71.078125 19.441406 71.214844 19.542969 C 71.292969 19.601562 71.371094 19.65625 71.449219 19.714844 C 71.527344 19.773438 71.609375 19.832031 71.691406 19.890625 C 72.328125 20.355469 72.945312 20.828125 73.542969 21.339844 C 73.714844 21.503906 73.714844 21.503906 73.925781 21.484375 C 74.046875 21.609375 74.046875 21.609375 74.183594 21.785156 C 74.453125 22.109375 74.742188 22.378906 75.066406 22.65625 C 76.089844 23.539062 77.058594 24.457031 77.902344 25.511719 C 78.105469 25.757812 78.316406 25.988281 78.535156 26.222656 C 79.679688 27.480469 80.628906 28.941406 81.542969 30.371094 C 81.617188 30.484375 81.617188 30.484375 81.691406 30.601562 C 82.496094 31.875 83.167969 33.195312 83.789062 34.570312 C 83.828125 34.65625 83.867188 34.742188 83.90625 34.828125 C 85.910156 39.28125 87.085938 44.035156 87.207031 48.925781 C 87.210938 49.007812 87.210938 49.09375 87.214844 49.179688 C 87.402344 57.820312 84.382812 66.671875 78.742188 73.265625 C 78.511719 73.542969 78.285156 73.820312 78.058594 74.101562 C 77.761719 74.46875 77.453125 74.804688 77.117188 75.128906 C 76.945312 75.300781 76.792969 75.476562 76.636719 75.660156 C 75.957031 76.445312 75.207031 77.164062 74.414062 77.832031 C 74.3125 77.917969 74.207031 78.007812 74.105469 78.09375 C 73.835938 78.324219 73.566406 78.550781 73.296875 78.777344 C 73.191406 78.867188 73.085938 78.957031 72.980469 79.046875 C 72.578125 79.394531 72.578125 79.394531 72.363281 79.394531 C 72.363281 79.460938 72.363281 79.523438 72.363281 79.589844 C 72.167969 79.730469 72.167969 79.730469 71.894531 79.894531 C 71.515625 80.128906 71.152344 80.371094 70.792969 80.640625 C 68.621094 82.238281 66.152344 83.433594 63.671875 84.472656 C 63.582031 84.511719 63.492188 84.546875 63.398438 84.585938 C 60.21875 85.902344 56.835938 86.609375 53.417969 86.914062 C 53.328125 86.921875 53.242188 86.933594 53.152344 86.941406 C 46.925781 87.550781 40.441406 86.367188 34.765625 83.789062 C 34.683594 83.753906 34.605469 83.71875 34.519531 83.679688 C 32.40625 82.742188 30.378906 81.546875 28.515625 80.175781 C 28.460938 80.136719 28.40625 80.09375 28.347656 80.054688 C 27.261719 79.246094 26.230469 78.367188 25.230469 77.457031 C 25.082031 77.320312 24.929688 77.1875 24.777344 77.054688 C 23.128906 75.621094 21.625 73.902344 20.421875 72.082031 C 20.328125 71.941406 20.222656 71.808594 20.117188 71.679688 C 20.019531 71.679688 19.925781 71.679688 19.824219 71.679688 C 19.808594 71.574219 19.808594 71.574219 19.792969 71.464844 C 19.722656 71.167969 19.613281 70.976562 19.445312 70.722656 C 19.394531 70.644531 19.34375 70.566406 19.292969 70.488281 C 19.21875 70.402344 19.21875 70.402344 19.140625 70.3125 C 19.042969 70.3125 18.949219 70.3125 18.847656 70.3125 C 18.800781 70.167969 18.800781 70.167969 18.75 70.019531 C 18.78125 69.953125 18.8125 69.890625 18.847656 69.824219 C 18.761719 69.625 18.761719 69.625 18.628906 69.40625 C 18.582031 69.324219 18.535156 69.242188 18.484375 69.15625 C 18.433594 69.070312 18.382812 68.984375 18.328125 68.894531 C 18.277344 68.808594 18.230469 68.722656 18.175781 68.636719 C 17.914062 68.175781 17.914062 68.175781 17.578125 67.773438 C 17.53125 67.628906 17.53125 67.628906 17.480469 67.480469 C 17.394531 67.300781 17.308594 67.125 17.222656 66.949219 C 17.167969 66.847656 17.117188 66.742188 17.066406 66.636719 C 17.011719 66.527344 16.957031 66.417969 16.902344 66.308594 C 16.847656 66.199219 16.792969 66.09375 16.738281 65.980469 C 16.6875 65.878906 16.632812 65.773438 16.582031 65.667969 C 16.53125 65.574219 16.484375 65.476562 16.4375 65.378906 C 16.246094 64.996094 16.246094 64.996094 15.917969 64.746094 C 15.898438 64.566406 15.878906 64.386719 15.863281 64.207031 C 15.78125 63.722656 15.578125 63.277344 15.398438 62.824219 C 14.550781 60.621094 14.550781 60.621094 14.550781 60.058594 C 14.484375 60.027344 14.421875 59.992188 14.355469 59.960938 C 14.289062 59.726562 14.234375 59.503906 14.183594 59.265625 C 14.160156 59.152344 14.160156 59.152344 14.136719 59.035156 C 14.097656 58.855469 14.0625 58.679688 14.027344 58.503906 C 13.984375 58.292969 13.9375 58.082031 13.894531 57.871094 C 12.972656 53.503906 12.429688 48.433594 13.476562 44.042969 C 13.578125 43.578125 13.679688 43.117188 13.78125 42.652344 C 13.808594 42.527344 13.835938 42.40625 13.863281 42.28125 C 13.890625 42.164062 13.914062 42.046875 13.941406 41.921875 C 13.964844 41.816406 13.988281 41.710938 14.011719 41.601562 C 14.058594 41.332031 14.074219 41.089844 14.0625 40.820312 C 14.125 40.820312 14.191406 40.820312 14.257812 40.820312 C 14.265625 40.765625 14.277344 40.707031 14.285156 40.652344 C 14.402344 40.03125 14.570312 39.445312 14.765625 38.847656 C 14.855469 38.574219 14.855469 38.574219 14.84375 38.28125 C 14.90625 38.28125 14.972656 38.28125 15.039062 38.28125 C 15.0625 38.160156 15.085938 38.039062 15.109375 37.914062 C 15.238281 37.332031 15.460938 36.796875 15.699219 36.25 C 15.746094 36.140625 15.792969 36.03125 15.839844 35.917969 C 16.609375 34.144531 17.449219 32.394531 18.507812 30.773438 C 18.785156 30.359375 18.785156 30.359375 18.828125 29.878906 C 18.804688 29.816406 18.777344 29.753906 18.75 29.6875 C 18.78125 29.785156 18.8125 29.882812 18.847656 29.980469 C 19.082031 29.769531 19.234375 29.601562 19.371094 29.316406 C 19.53125 29 19.710938 28.785156 19.941406 28.527344 C 20.234375 28.183594 20.496094 27.816406 20.761719 27.457031 C 21.066406 27.058594 21.386719 26.675781 21.714844 26.296875 C 21.902344 26.082031 21.902344 26.082031 21.875 25.78125 C 22.105469 25.628906 22.105469 25.628906 22.363281 25.488281 C 22.5625 25.3125 22.5625 25.3125 22.632812 25.117188 C 22.804688 24.8125 23.070312 24.636719 23.339844 24.414062 C 23.386719 24.269531 23.386719 24.269531 23.4375 24.121094 C 23.535156 24.121094 23.632812 24.121094 23.730469 24.121094 C 23.730469 24.023438 23.730469 23.929688 23.730469 23.828125 C 23.917969 23.652344 23.917969 23.652344 24.183594 23.449219 C 24.632812 23.09375 25.054688 22.722656 25.46875 22.328125 C 26.074219 21.757812 26.703125 21.238281 27.363281 20.738281 C 27.542969 20.601562 27.71875 20.464844 27.898438 20.328125 C 29.839844 18.820312 31.96875 17.574219 34.179688 16.5 C 34.371094 16.410156 34.558594 16.3125 34.746094 16.21875 C 36.636719 15.277344 38.6875 14.613281 40.722656 14.0625 C 40.800781 14.042969 40.875 14.019531 40.953125 14 C 45.5625 12.757812 50.4375 12.59375 55.148438 13.246094 Z M 16.015625 64.453125 C 16.113281 64.648438 16.113281 64.648438 16.113281 64.648438 Z M 16.015625 64.453125" style="stroke:none;fill-rule:nonzero;fill:rgb(4.705882%,4.705882%,4.313726%);fill-opacity:1;"/>
<path d="M 63.75 28.929688 C 63.8125 28.976562 63.875 29.019531 63.9375 29.066406 C 64.113281 29.203125 64.285156 29.347656 64.453125 29.492188 C 64.511719 29.539062 64.570312 29.585938 64.632812 29.632812 C 65.023438 29.988281 65.175781 30.292969 65.214844 30.824219 C 65.226562 31.203125 65.226562 31.578125 65.21875 31.957031 C 65.21875 32.121094 65.222656 32.285156 65.222656 32.449219 C 65.222656 32.792969 65.21875 33.132812 65.214844 33.476562 C 65.210938 33.914062 65.210938 34.355469 65.210938 34.792969 C 65.214844 35.132812 65.210938 35.46875 65.210938 35.808594 C 65.207031 35.96875 65.207031 36.132812 65.210938 36.292969 C 65.210938 36.519531 65.207031 36.746094 65.203125 36.972656 C 65.203125 37.097656 65.199219 37.226562 65.199219 37.359375 C 65.121094 37.777344 64.976562 37.921875 64.648438 38.183594 C 64.421875 38.257812 64.421875 38.257812 64.160156 38.28125 C 64.042969 38.296875 63.925781 38.308594 63.804688 38.324219 C 62.675781 38.410156 62.046875 38.097656 61.148438 37.453125 C 60.769531 37.1875 60.375 36.953125 59.980469 36.71875 C 59.898438 36.667969 59.816406 36.621094 59.730469 36.570312 C 55.835938 34.257812 51.402344 32.746094 46.859375 33.839844 C 45.425781 34.222656 44.265625 34.9375 43.480469 36.207031 C 42.871094 37.316406 42.675781 38.515625 42.933594 39.761719 C 43.324219 40.957031 44.144531 41.6875 45.234375 42.25 C 46.15625 42.6875 47.085938 43.035156 48.054688 43.347656 C 48.207031 43.398438 48.363281 43.449219 48.515625 43.5 C 50.199219 44.050781 51.898438 44.558594 53.601562 45.042969 C 58.472656 46.425781 63.832031 48.339844 66.449219 53.027344 C 68.265625 56.375 68.234375 60.375 67.1875 63.964844 C 66.03125 67.71875 63.351562 70.324219 59.960938 72.167969 C 59.875 72.21875 59.789062 72.265625 59.699219 72.316406 C 57.308594 73.601562 54.546875 74.164062 51.875 74.484375 C 51.738281 74.503906 51.597656 74.519531 51.457031 74.539062 C 45.246094 75.351562 38.59375 73.273438 33.550781 69.707031 C 33.492188 69.667969 33.433594 69.628906 33.375 69.585938 C 33.21875 69.472656 33.0625 69.355469 32.910156 69.238281 C 32.839844 69.1875 32.769531 69.136719 32.699219 69.082031 C 32.4375 68.738281 32.464844 68.402344 32.46875 67.984375 C 32.46875 67.898438 32.46875 67.8125 32.46875 67.722656 C 32.46875 67.433594 32.46875 67.144531 32.472656 66.859375 C 32.472656 66.65625 32.472656 66.457031 32.46875 66.257812 C 32.46875 65.839844 32.472656 65.421875 32.472656 65 C 32.476562 64.464844 32.476562 63.925781 32.476562 63.390625 C 32.472656 62.976562 32.476562 62.5625 32.476562 62.152344 C 32.476562 61.953125 32.476562 61.753906 32.476562 61.554688 C 32.476562 61.28125 32.476562 61.003906 32.480469 60.726562 C 32.480469 60.644531 32.480469 60.5625 32.480469 60.476562 C 32.484375 60.148438 32.496094 59.90625 32.652344 59.617188 C 32.9375 59.355469 33.238281 59.410156 33.605469 59.425781 C 34.074219 59.503906 34.371094 59.742188 34.730469 60.039062 C 34.882812 60.15625 35.035156 60.273438 35.1875 60.390625 C 35.300781 60.480469 35.300781 60.480469 35.417969 60.570312 C 35.757812 60.828125 36.109375 61.0625 36.46875 61.292969 C 36.535156 61.335938 36.601562 61.378906 36.671875 61.421875 C 37.417969 61.894531 38.179688 62.335938 38.949219 62.769531 C 39.136719 62.875 39.320312 62.984375 39.507812 63.09375 C 43.503906 65.359375 48.46875 66.382812 52.972656 65.222656 C 54.527344 64.792969 55.890625 63.988281 56.746094 62.589844 C 56.84375 62.402344 56.941406 62.207031 57.03125 62.011719 C 57.066406 61.9375 57.101562 61.863281 57.136719 61.785156 C 57.523438 60.765625 57.496094 59.328125 57.054688 58.335938 C 56.996094 58.222656 56.996094 58.222656 56.933594 58.105469 C 56.875 57.992188 56.875 57.992188 56.8125 57.875 C 55.90625 56.375 54.292969 55.617188 52.703125 55.046875 C 52.597656 55.011719 52.492188 54.972656 52.382812 54.933594 C 51.15625 54.503906 49.898438 54.175781 48.640625 53.851562 C 47.261719 53.496094 45.886719 53.132812 44.527344 52.714844 C 44.425781 52.683594 44.324219 52.652344 44.21875 52.617188 C 42.667969 52.132812 41.175781 51.554688 39.746094 50.78125 C 39.6875 50.75 39.628906 50.71875 39.566406 50.6875 C 38.28125 50.003906 37.191406 49.140625 36.132812 48.144531 C 36.074219 48.09375 36.015625 48.039062 35.953125 47.984375 C 34.09375 46.257812 32.984375 43.457031 32.890625 40.949219 C 32.875 40.511719 32.875 40.070312 32.875 39.632812 C 32.875 39.359375 32.871094 39.085938 32.867188 38.8125 C 32.84375 35.300781 34.152344 32.164062 36.609375 29.664062 C 37.582031 28.699219 38.65625 27.929688 39.84375 27.246094 C 39.953125 27.183594 40.0625 27.117188 40.175781 27.050781 C 42.40625 25.785156 44.929688 25.109375 47.460938 24.804688 C 47.523438 24.796875 47.589844 24.785156 47.65625 24.777344 C 53.195312 24.039062 59.273438 25.628906 63.75 28.929688 Z M 63.75 28.929688" style="stroke:none;fill-rule:nonzero;fill:rgb(99.607843%,82.745099%,25.098041%);fill-opacity:1;"/>
<path d="M 84.765625 37.109375 C 85.089844 37.597656 85.234375 38.164062 85.417969 38.71875 C 85.460938 38.84375 85.503906 38.96875 85.546875 39.089844 C 85.585938 39.207031 85.625 39.324219 85.664062 39.445312 C 85.71875 39.605469 85.71875 39.605469 85.773438 39.769531 C 85.839844 40.039062 85.839844 40.039062 85.742188 40.332031 C 85.710938 40.171875 85.679688 40.007812 85.644531 39.84375 C 85.578125 39.84375 85.515625 39.84375 85.449219 39.84375 C 85.335938 39.511719 85.226562 39.175781 85.113281 38.84375 C 85.082031 38.75 85.050781 38.652344 85.015625 38.554688 C 84.988281 38.464844 84.957031 38.375 84.925781 38.28125 C 84.882812 38.152344 84.882812 38.152344 84.839844 38.027344 C 84.65625 37.441406 84.65625 37.441406 84.765625 37.109375 Z M 84.765625 37.109375" style="stroke:none;fill-rule:nonzero;fill:rgb(10.980392%,10.588235%,9.411765%);fill-opacity:1;"/>
<path d="M 63.085938 15.332031 C 63.167969 15.351562 63.25 15.375 63.332031 15.394531 C 63.4375 15.421875 63.542969 15.449219 63.652344 15.476562 C 63.757812 15.503906 63.863281 15.53125 63.972656 15.5625 C 64.257812 15.636719 64.257812 15.636719 64.550781 15.625 C 64.550781 15.722656 64.550781 15.820312 64.550781 15.917969 C 64.839844 16.015625 65.132812 16.109375 65.429688 16.210938 C 65.429688 16.242188 65.429688 16.273438 65.429688 16.308594 C 65.234375 16.308594 65.042969 16.308594 64.84375 16.308594 C 64.84375 16.242188 64.84375 16.179688 64.84375 16.113281 C 64.75 16.105469 64.660156 16.097656 64.5625 16.089844 C 64.082031 16.019531 63.609375 15.859375 63.183594 15.625 C 63.152344 15.527344 63.117188 15.429688 63.085938 15.332031 Z M 63.085938 15.332031" style="stroke:none;fill-rule:nonzero;fill:rgb(19.215687%,18.431373%,15.686275%);fill-opacity:1;"/>
<path d="M 13.476562 44.042969 C 13.507812 44.042969 13.539062 44.042969 13.574219 44.042969 C 13.660156 44.644531 13.660156 44.644531 13.671875 44.824219 C 13.640625 44.855469 13.609375 44.890625 13.574219 44.921875 C 13.570312 45.074219 13.570312 45.222656 13.574219 45.375 C 13.578125 45.789062 13.546875 46.171875 13.476562 46.582031 C 13.414062 46.582031 13.347656 46.582031 13.28125 46.582031 C 13.28125 46.773438 13.28125 46.96875 13.28125 47.167969 C 13.25 47.167969 13.21875 47.167969 13.183594 47.167969 C 13.175781 46.613281 13.191406 46.0625 13.226562 45.507812 C 13.234375 45.382812 13.242188 45.253906 13.25 45.125 C 13.28125 44.824219 13.28125 44.824219 13.378906 44.726562 C 13.414062 44.5 13.449219 44.269531 13.476562 44.042969 Z M 13.476562 44.042969" style="stroke:none;fill-rule:nonzero;fill:rgb(21.568628%,20.392157%,17.647059%);fill-opacity:1;"/>
<path d="M 48.90625 65.714844 C 49.023438 65.71875 49.023438 65.71875 49.140625 65.71875 C 49.328125 65.71875 49.519531 65.722656 49.707031 65.722656 C 49.707031 65.753906 49.707031 65.789062 49.707031 65.820312 C 49.996094 65.867188 49.996094 65.867188 50.292969 65.917969 C 50.292969 65.949219 50.292969 65.984375 50.292969 66.015625 C 49.421875 66.015625 48.554688 66.015625 47.65625 66.015625 C 47.625 65.953125 47.59375 65.886719 47.558594 65.820312 C 48.011719 65.707031 48.445312 65.710938 48.90625 65.714844 Z M 48.90625 65.714844" style="stroke:none;fill-rule:nonzero;fill:rgb(90.196079%,76.078433%,23.921569%);fill-opacity:1;"/>
<path d="M 17.382812 67.089844 C 17.738281 67.207031 17.765625 67.289062 17.9375 67.609375 C 17.980469 67.683594 18.023438 67.761719 18.066406 67.839844 C 18.164062 68.066406 18.164062 68.066406 18.164062 68.457031 C 18.261719 68.488281 18.359375 68.523438 18.457031 68.554688 C 18.488281 68.75 18.523438 68.941406 18.554688 69.140625 C 18.277344 68.894531 18.125 68.621094 17.949219 68.292969 C 17.898438 68.195312 17.847656 68.097656 17.792969 68 C 17.753906 67.925781 17.714844 67.851562 17.675781 67.773438 C 17.609375 67.773438 17.546875 67.773438 17.480469 67.773438 C 17.449219 67.546875 17.414062 67.320312 17.382812 67.089844 Z M 17.382812 67.089844" style="stroke:none;fill-rule:nonzero;fill:rgb(16.862746%,16.078432%,13.725491%);fill-opacity:1;"/>
<path d="M 24.316406 23.339844 C 24.382812 23.371094 24.445312 23.40625 24.511719 23.4375 C 24.453125 23.492188 24.390625 23.546875 24.328125 23.601562 C 24.109375 23.8125 24.109375 23.8125 24.035156 24.066406 C 23.878906 24.421875 23.648438 24.570312 23.339844 24.804688 C 23.273438 24.742188 23.210938 24.675781 23.144531 24.609375 C 23.273438 24.367188 23.273438 24.367188 23.4375 24.121094 C 23.535156 24.121094 23.632812 24.121094 23.730469 24.121094 C 23.730469 24.023438 23.730469 23.929688 23.730469 23.828125 C 23.910156 23.640625 24.109375 23.5 24.316406 23.339844 Z M 24.316406 23.339844" style="stroke:none;fill-rule:nonzero;fill:rgb(18.039216%,17.254902%,14.901961%);fill-opacity:1;"/>
<path d="M 44.238281 86.523438 C 44.617188 86.515625 44.964844 86.515625 45.339844 86.570312 C 45.722656 86.625 46.089844 86.628906 46.476562 86.628906 C 46.546875 86.625 46.613281 86.625 46.679688 86.625 C 46.84375 86.625 47.003906 86.621094 47.167969 86.621094 C 47.167969 86.6875 47.167969 86.75 47.167969 86.816406 C 47.328125 86.816406 47.492188 86.816406 47.65625 86.816406 C 47.65625 86.847656 47.65625 86.882812 47.65625 86.914062 C 46.890625 86.9375 46.15625 86.867188 45.398438 86.765625 C 45.285156 86.753906 45.175781 86.738281 45.058594 86.726562 C 44.785156 86.691406 44.511719 86.65625 44.238281 86.621094 C 44.238281 86.589844 44.238281 86.554688 44.238281 86.523438 Z M 44.238281 86.523438" style="stroke:none;fill-rule:nonzero;fill:rgb(35.686275%,33.725491%,29.019609%);fill-opacity:1;"/>
<path d="M 49.511719 43.945312 C 50.140625 44.007812 50.714844 44.195312 51.3125 44.390625 C 51.460938 44.4375 51.460938 44.4375 51.613281 44.488281 C 51.855469 44.566406 52.101562 44.648438 52.34375 44.726562 C 52.3125 44.789062 52.28125 44.855469 52.246094 44.921875 C 51.324219 44.65625 50.417969 44.347656 49.511719 44.042969 C 49.511719 44.011719 49.511719 43.976562 49.511719 43.945312 Z M 49.511719 43.945312" style="stroke:none;fill-rule:nonzero;fill:rgb(96.470588%,93.725491%,37.254903%);fill-opacity:1;"/>
<path d="M 46.875 13.085938 C 46.875 13.117188 46.875 13.148438 46.875 13.183594 C 46.714844 13.183594 46.554688 13.183594 46.386719 13.183594 C 46.355469 13.28125 46.320312 13.375 46.289062 13.476562 C 46.007812 13.488281 46.007812 13.488281 45.703125 13.476562 C 45.640625 13.414062 45.574219 13.347656 45.507812 13.28125 C 45.507812 13.34375 45.507812 13.410156 45.507812 13.476562 C 45.152344 13.445312 44.796875 13.414062 44.433594 13.378906 C 44.433594 13.347656 44.433594 13.3125 44.433594 13.28125 C 45.253906 13.160156 46.042969 13.050781 46.875 13.085938 Z M 46.875 13.085938" style="stroke:none;fill-rule:nonzero;fill:rgb(21.176471%,20%,17.254902%);fill-opacity:1;"/>
<path d="M 83.59375 34.375 C 83.871094 34.707031 84.039062 35.066406 84.203125 35.460938 C 84.230469 35.523438 84.257812 35.585938 84.289062 35.648438 C 84.355469 35.808594 84.414062 35.96875 84.472656 36.132812 C 84.441406 36.195312 84.40625 36.261719 84.375 36.328125 C 84.140625 36.117188 84.019531 35.933594 83.910156 35.636719 C 83.886719 35.570312 83.859375 35.503906 83.832031 35.433594 C 83.789062 35.253906 83.789062 35.253906 83.886719 35.058594 C 83.820312 35.058594 83.757812 35.058594 83.691406 35.058594 C 83.585938 34.828125 83.585938 34.828125 83.496094 34.570312 C 83.527344 34.507812 83.5625 34.441406 83.59375 34.375 Z M 83.59375 34.375" style="stroke:none;fill-rule:nonzero;fill:rgb(15.294118%,14.509805%,12.54902%);fill-opacity:1;"/>
<path d="M 39.355469 27.539062 C 39.386719 27.601562 39.421875 27.667969 39.453125 27.734375 C 39.394531 27.769531 39.335938 27.808594 39.277344 27.84375 C 38.832031 28.132812 38.457031 28.425781 38.085938 28.808594 C 37.824219 28.992188 37.824219 28.992188 37.597656 29.101562 C 37.53125 29.070312 37.46875 29.039062 37.402344 29.003906 C 38.007812 28.429688 38.640625 27.96875 39.355469 27.539062 Z M 39.355469 27.539062" style="stroke:none;fill-rule:nonzero;fill:rgb(96.862745%,92.941177%,37.254903%);fill-opacity:1;"/>
<path d="M 18.945312 69.824219 C 19.292969 69.964844 19.453125 70.136719 19.660156 70.445312 C 19.710938 70.523438 19.761719 70.597656 19.816406 70.675781 C 19.921875 70.898438 19.921875 70.898438 19.890625 71.121094 C 19.867188 71.175781 19.847656 71.230469 19.824219 71.289062 C 19.777344 71.21875 19.730469 71.148438 19.683594 71.074219 C 19.59375 70.941406 19.59375 70.941406 19.5 70.800781 C 19.441406 70.710938 19.378906 70.621094 19.320312 70.527344 C 19.261719 70.457031 19.203125 70.386719 19.140625 70.3125 C 19.042969 70.3125 18.945312 70.3125 18.847656 70.3125 C 18.816406 70.214844 18.78125 70.117188 18.75 70.019531 C 18.8125 69.953125 18.878906 69.890625 18.945312 69.824219 Z M 18.945312 69.824219" style="stroke:none;fill-rule:nonzero;fill:rgb(18.82353%,17.647059%,14.509805%);fill-opacity:1;"/>
<path d="M 62.402344 28.125 C 62.898438 28.28125 63.273438 28.582031 63.683594 28.894531 C 63.753906 28.945312 63.824219 28.996094 63.894531 29.050781 C 64.226562 29.300781 64.523438 29.523438 64.746094 29.882812 C 64.367188 29.71875 64.058594 29.472656 63.738281 29.21875 C 63.386719 28.941406 63.03125 28.667969 62.664062 28.410156 C 62.578125 28.347656 62.492188 28.285156 62.402344 28.222656 C 62.402344 28.191406 62.402344 28.15625 62.402344 28.125 Z M 62.402344 28.125" style="stroke:none;fill-rule:nonzero;fill:rgb(96.078432%,93.333334%,36.470589%);fill-opacity:1;"/>
<path d="M 13.378906 54.394531 C 13.589844 54.566406 13.664062 54.660156 13.726562 54.929688 C 13.761719 55.417969 13.789062 55.867188 13.671875 56.347656 C 13.640625 56.347656 13.609375 56.347656 13.574219 56.347656 C 13.453125 55.6875 13.351562 55.066406 13.378906 54.394531 Z M 13.378906 54.394531" style="stroke:none;fill-rule:nonzero;fill:rgb(20%,19.215687%,16.470589%);fill-opacity:1;"/>
<path d="M 42.285156 85.9375 C 42.285156 86 42.285156 86.066406 42.285156 86.132812 C 42.414062 86.132812 42.542969 86.132812 42.675781 86.132812 C 42.675781 86.070312 42.675781 86.003906 42.675781 85.9375 C 42.964844 85.984375 42.964844 85.984375 43.261719 86.035156 C 43.164062 86.179688 43.164062 86.179688 43.066406 86.328125 C 42.464844 86.269531 41.894531 86.175781 41.308594 86.035156 C 41.308594 86.003906 41.308594 85.96875 41.308594 85.9375 C 41.667969 85.84375 41.925781 85.84375 42.285156 85.9375 Z M 42.285156 85.9375" style="stroke:none;fill-rule:nonzero;fill:rgb(22.745098%,21.176471%,17.647059%);fill-opacity:1;"/>
<path d="M 67.578125 82.617188 C 67.339844 82.75 67.097656 82.882812 66.859375 83.015625 C 66.753906 83.070312 66.753906 83.070312 66.652344 83.128906 C 66.476562 83.226562 66.292969 83.3125 66.113281 83.398438 C 66.046875 83.367188 65.984375 83.335938 65.917969 83.300781 C 66.148438 83.042969 66.386719 82.894531 66.691406 82.738281 C 66.777344 82.695312 66.859375 82.652344 66.945312 82.605469 C 67.21875 82.507812 67.3125 82.535156 67.578125 82.617188 Z M 67.578125 82.617188" style="stroke:none;fill-rule:nonzero;fill:rgb(16.862746%,16.078432%,13.725491%);fill-opacity:1;"/>
<path d="M 84.179688 63.671875 C 84.242188 63.703125 84.308594 63.734375 84.375 63.769531 C 84.195312 64.355469 83.976562 64.886719 83.691406 65.429688 C 83.660156 65.429688 83.625 65.429688 83.59375 65.429688 C 83.644531 64.914062 83.765625 64.527344 83.984375 64.0625 C 84.046875 64.0625 84.113281 64.0625 84.179688 64.0625 C 84.179688 63.933594 84.179688 63.804688 84.179688 63.671875 Z M 84.179688 63.671875" style="stroke:none;fill-rule:nonzero;fill:rgb(15.294118%,14.117648%,12.156863%);fill-opacity:1;"/>
<path d="M 87.011719 51.367188 C 87.042969 51.367188 87.078125 51.367188 87.109375 51.367188 C 87.121094 52.222656 87.109375 53.058594 87.011719 53.90625 C 86.980469 53.90625 86.945312 53.90625 86.914062 53.90625 C 86.882812 53.328125 86.851562 52.746094 86.816406 52.148438 C 86.847656 52.148438 86.882812 52.148438 86.914062 52.148438 C 86.945312 51.890625 86.976562 51.632812 87.011719 51.367188 Z M 87.011719 51.367188" style="stroke:none;fill-rule:nonzero;fill:rgb(25.490198%,24.705882%,21.568628%);fill-opacity:1;"/>
<path d="M 86.425781 42.871094 C 86.800781 43.53125 86.851562 44.371094 86.816406 45.117188 C 86.785156 44.988281 86.75 44.859375 86.71875 44.726562 C 86.65625 44.726562 86.589844 44.726562 86.523438 44.726562 C 86.410156 44.105469 86.417969 43.5 86.425781 42.871094 Z M 86.425781 42.871094" style="stroke:none;fill-rule:nonzero;fill:rgb(23.921569%,23.137255%,20.784314%);fill-opacity:1;"/>
<path d="M 85.253906 38.476562 C 85.460938 38.785156 85.550781 39.050781 85.664062 39.40625 C 85.699219 39.515625 85.734375 39.628906 85.769531 39.742188 C 85.839844 40.039062 85.839844 40.039062 85.742188 40.332031 C 85.710938 40.171875 85.679688 40.007812 85.644531 39.84375 C 85.578125 39.84375 85.515625 39.84375 85.449219 39.84375 C 85.398438 39.671875 85.347656 39.5 85.296875 39.324219 C 85.269531 39.230469 85.238281 39.132812 85.210938 39.03125 C 85.15625 38.769531 85.15625 38.769531 85.253906 38.476562 Z M 85.253906 38.476562" style="stroke:none;fill-rule:nonzero;fill:rgb(17.647059%,16.862746%,14.509805%);fill-opacity:1;"/>
<path d="M 13.183594 52.539062 C 13.214844 52.667969 13.25 52.796875 13.28125 52.929688 C 13.34375 52.929688 13.410156 52.929688 13.476562 52.929688 C 13.496094 53.960938 13.496094 53.960938 13.378906 54.394531 C 13.347656 54.394531 13.3125 54.394531 13.28125 54.394531 C 13.199219 53.769531 13.171875 53.167969 13.183594 52.539062 Z M 13.183594 52.539062" style="stroke:none;fill-rule:nonzero;fill:rgb(22.352941%,21.568628%,18.82353%);fill-opacity:1;"/>
<path d="M 44.335938 13.378906 C 44.304688 13.507812 44.273438 13.636719 44.238281 13.769531 C 44.011719 13.703125 43.789062 13.640625 43.554688 13.574219 C 43.554688 13.671875 43.554688 13.765625 43.554688 13.867188 C 43.457031 13.835938 43.359375 13.804688 43.261719 13.769531 C 43.097656 13.734375 42.9375 13.703125 42.773438 13.671875 C 42.773438 13.640625 42.773438 13.609375 42.773438 13.574219 C 42.941406 13.542969 43.109375 13.507812 43.28125 13.476562 C 43.375 13.457031 43.46875 13.441406 43.566406 13.421875 C 43.828125 13.382812 44.070312 13.371094 44.335938 13.378906 Z M 44.335938 13.378906" style="stroke:none;fill-rule:nonzero;fill:rgb(22.352941%,21.568628%,18.82353%);fill-opacity:1;"/>
<path d="M 32.226562 82.421875 C 32.710938 82.46875 33.070312 82.574219 33.496094 82.8125 C 33.496094 82.910156 33.496094 83.007812 33.496094 83.105469 C 33.023438 82.96875 32.644531 82.769531 32.226562 82.519531 C 32.226562 82.488281 32.226562 82.453125 32.226562 82.421875 Z M 32.226562 82.421875" style="stroke:none;fill-rule:nonzero;fill:rgb(17.647059%,16.862746%,14.117648%);fill-opacity:1;"/>
<path d="M 38.671875 14.84375 C 38.414062 14.988281 38.292969 15.039062 37.988281 15.039062 C 37.988281 15.101562 37.988281 15.167969 37.988281 15.234375 C 37.234375 15.449219 37.234375 15.449219 36.816406 15.332031 C 37.089844 15.230469 37.363281 15.132812 37.632812 15.03125 C 37.710938 15.003906 37.789062 14.976562 37.871094 14.945312 C 37.945312 14.917969 38.019531 14.890625 38.09375 14.863281 C 38.164062 14.839844 38.230469 14.816406 38.300781 14.789062 C 38.476562 14.746094 38.476562 14.746094 38.671875 14.84375 Z M 38.671875 14.84375" style="stroke:none;fill-rule:nonzero;fill:rgb(22.745098%,21.568628%,18.82353%);fill-opacity:1;"/>
<path d="M 64.0625 29.101562 C 64.304688 29.21875 64.519531 29.339844 64.746094 29.492188 C 64.746094 29.554688 64.746094 29.621094 64.746094 29.6875 C 64.808594 29.710938 64.871094 29.734375 64.933594 29.761719 C 65.136719 29.882812 65.136719 29.882812 65.210938 30.089844 C 65.222656 30.179688 65.222656 30.179688 65.234375 30.273438 C 65.171875 30.273438 65.105469 30.273438 65.039062 30.273438 C 64.878906 30.109375 64.878906 30.109375 64.703125 29.894531 C 64.492188 29.640625 64.339844 29.480469 64.0625 29.296875 C 64.0625 29.234375 64.0625 29.167969 64.0625 29.101562 Z M 64.0625 29.101562" style="stroke:none;fill-rule:nonzero;fill:rgb(9.019608%,6.666667%,1.960784%);fill-opacity:1;"/>
<path d="M 42.773438 13.671875 C 42.40625 13.867188 42.40625 13.867188 42.1875 13.867188 C 42.1875 13.929688 42.1875 13.996094 42.1875 14.0625 C 41.75 14.148438 41.503906 14.191406 41.113281 13.964844 C 41.296875 13.914062 41.484375 13.867188 41.667969 13.820312 C 41.824219 13.777344 41.824219 13.777344 41.980469 13.734375 C 42.257812 13.679688 42.492188 13.660156 42.773438 13.671875 Z M 42.773438 13.671875" style="stroke:none;fill-rule:nonzero;fill:rgb(24.705882%,23.921569%,20.392157%);fill-opacity:1;"/>
<path d="M 70.507812 80.46875 C 70.636719 80.5 70.765625 80.53125 70.898438 80.566406 C 70.578125 80.792969 70.253906 81.015625 69.921875 81.25 C 69.859375 81.21875 69.792969 81.1875 69.726562 81.152344 C 69.976562 80.894531 70.207031 80.667969 70.507812 80.46875 Z M 70.507812 80.46875" style="stroke:none;fill-rule:nonzero;fill:rgb(18.039216%,17.254902%,14.509805%);fill-opacity:1;"/>
<path d="M 16.699219 65.722656 C 16.765625 65.722656 16.828125 65.722656 16.894531 65.722656 C 17.085938 66.109375 17.28125 66.496094 17.480469 66.894531 C 17.414062 66.960938 17.351562 67.023438 17.285156 67.089844 C 17.1875 66.898438 17.089844 66.707031 16.992188 66.515625 C 16.910156 66.355469 16.910156 66.355469 16.828125 66.195312 C 16.699219 65.917969 16.699219 65.917969 16.699219 65.722656 Z M 16.699219 65.722656" style="stroke:none;fill-rule:nonzero;fill:rgb(15.294118%,14.117648%,12.156863%);fill-opacity:1;"/>
<path d="M 81.835938 31.054688 C 82.15625 31.328125 82.324219 31.664062 82.519531 32.03125 C 82.519531 32.09375 82.519531 32.160156 82.519531 32.226562 C 82.160156 32.105469 82.09375 31.945312 81.910156 31.628906 C 81.835938 31.445312 81.835938 31.445312 81.835938 31.054688 Z M 81.835938 31.054688" style="stroke:none;fill-rule:nonzero;fill:rgb(14.509805%,14.117648%,11.764706%);fill-opacity:1;"/>
<path d="M 61.71875 14.84375 C 61.890625 14.886719 62.066406 14.933594 62.238281 14.976562 C 62.382812 15.015625 62.382812 15.015625 62.53125 15.054688 C 62.792969 15.136719 62.792969 15.136719 63.085938 15.332031 C 62.691406 15.445312 62.480469 15.414062 62.109375 15.234375 C 62.109375 15.171875 62.109375 15.105469 62.109375 15.039062 C 61.980469 15.070312 61.851562 15.101562 61.71875 15.136719 C 61.71875 15.039062 61.71875 14.945312 61.71875 14.84375 Z M 61.71875 14.84375" style="stroke:none;fill-rule:nonzero;fill:rgb(18.039216%,16.862746%,14.509805%);fill-opacity:1;"/>
<path d="M 62.792969 84.375 C 62.921875 84.4375 63.050781 84.503906 63.183594 84.570312 C 62.949219 84.726562 62.757812 84.828125 62.5 84.929688 C 62.433594 84.957031 62.367188 84.984375 62.296875 85.011719 C 62.109375 85.058594 62.109375 85.058594 61.816406 84.960938 C 61.882812 84.960938 61.945312 84.960938 62.011719 84.960938 C 62.011719 84.898438 62.011719 84.832031 62.011719 84.765625 C 62.277344 84.632812 62.5 84.660156 62.792969 84.667969 C 62.792969 84.570312 62.792969 84.476562 62.792969 84.375 Z M 62.792969 84.375" style="stroke:none;fill-rule:nonzero;fill:rgb(18.039216%,17.254902%,14.901961%);fill-opacity:1;"/>
<path d="M 23.046875 75 C 23.179688 75.085938 23.308594 75.171875 23.4375 75.261719 C 23.511719 75.3125 23.582031 75.359375 23.65625 75.410156 C 23.828125 75.585938 23.828125 75.585938 23.851562 75.851562 C 23.84375 75.925781 23.835938 76 23.828125 76.074219 C 23.664062 75.910156 23.503906 75.75 23.339844 75.585938 C 23.28125 75.535156 23.222656 75.480469 23.164062 75.425781 C 23.046875 75.292969 23.046875 75.292969 23.046875 75 Z M 23.046875 75" style="stroke:none;fill-rule:nonzero;fill:rgb(14.117648%,13.333334%,11.372549%);fill-opacity:1;"/>
<path d="M 15.820312 63.769531 C 15.917969 63.800781 16.015625 63.835938 16.113281 63.867188 C 16.179688 64.1875 16.242188 64.511719 16.308594 64.84375 C 16.179688 64.8125 16.050781 64.78125 15.917969 64.746094 C 15.886719 64.421875 15.851562 64.101562 15.820312 63.769531 Z M 16.015625 64.453125 C 16.113281 64.648438 16.113281 64.648438 16.113281 64.648438 Z M 16.015625 64.453125" style="stroke:none;fill-rule:nonzero;fill:rgb(21.176471%,19.607843%,16.862746%);fill-opacity:1;"/>
<path d="M 66.113281 52.441406 C 66.40625 52.539062 66.40625 52.539062 66.542969 52.753906 C 66.582031 52.84375 66.625 52.929688 66.667969 53.019531 C 66.710938 53.109375 66.753906 53.195312 66.796875 53.285156 C 66.894531 53.515625 66.894531 53.515625 66.894531 53.710938 C 66.828125 53.710938 66.765625 53.710938 66.699219 53.710938 C 66.601562 53.535156 66.503906 53.359375 66.40625 53.1875 C 66.324219 53.039062 66.324219 53.039062 66.242188 52.890625 C 66.113281 52.636719 66.113281 52.636719 66.113281 52.441406 Z M 66.113281 52.441406" style="stroke:none;fill-rule:nonzero;fill:rgb(10.196079%,8.235294%,1.960784%);fill-opacity:1;"/>
<path d="M 23.046875 24.707031 C 23.144531 24.902344 23.144531 24.902344 23.089844 25.148438 C 22.949219 25.390625 22.949219 25.390625 22.644531 25.519531 C 22.550781 25.539062 22.457031 25.5625 22.363281 25.585938 C 22.605469 24.9375 22.605469 24.9375 22.871094 24.761719 C 22.929688 24.742188 22.988281 24.726562 23.046875 24.707031 Z M 23.046875 24.707031" style="stroke:none;fill-rule:nonzero;fill:rgb(16.862746%,16.078432%,14.117648%);fill-opacity:1;"/>
<path d="M 24.609375 76.855469 C 25.164062 76.984375 25.359375 77.195312 25.683594 77.636719 C 25.316406 77.636719 25.25 77.542969 24.980469 77.300781 C 24.910156 77.238281 24.84375 77.175781 24.769531 77.113281 C 24.71875 77.058594 24.664062 77.007812 24.609375 76.953125 C 24.609375 76.921875 24.609375 76.890625 24.609375 76.855469 Z M 24.609375 76.855469" style="stroke:none;fill-rule:nonzero;fill:rgb(15.294118%,14.509805%,12.54902%);fill-opacity:1;"/>
<path d="M 86.816406 45.214844 C 86.847656 45.214844 86.882812 45.214844 86.914062 45.214844 C 86.945312 45.730469 86.976562 46.246094 87.011719 46.777344 C 86.945312 46.648438 86.882812 46.519531 86.816406 46.386719 C 86.785156 46.355469 86.75 46.320312 86.71875 46.289062 C 86.726562 46.109375 86.742188 45.925781 86.761719 45.746094 C 86.769531 45.648438 86.78125 45.546875 86.792969 45.445312 C 86.800781 45.371094 86.808594 45.292969 86.816406 45.214844 Z M 86.816406 45.214844" style="stroke:none;fill-rule:nonzero;fill:rgb(22.352941%,21.960784%,18.82353%);fill-opacity:1;"/>
<path d="M 63.085938 15.332031 C 63.246094 15.375 63.40625 15.417969 63.566406 15.460938 C 63.703125 15.496094 63.703125 15.496094 63.839844 15.53125 C 63.914062 15.5625 63.988281 15.59375 64.0625 15.625 C 64.09375 15.722656 64.125 15.820312 64.160156 15.917969 C 64 15.875 63.839844 15.832031 63.679688 15.789062 C 63.589844 15.765625 63.5 15.742188 63.40625 15.71875 C 63.332031 15.6875 63.257812 15.65625 63.183594 15.625 C 63.152344 15.527344 63.117188 15.429688 63.085938 15.332031 Z M 63.085938 15.332031" style="stroke:none;fill-rule:nonzero;fill:rgb(14.901961%,14.117648%,12.156863%);fill-opacity:1;"/>
<path d="M 33.59375 83.007812 C 33.65625 83.007812 33.722656 83.007812 33.789062 83.007812 C 33.789062 83.070312 33.789062 83.136719 33.789062 83.203125 C 33.886719 83.171875 33.984375 83.140625 34.082031 83.105469 C 34.34375 83.234375 34.34375 83.234375 34.570312 83.398438 C 34.570312 83.460938 34.570312 83.527344 34.570312 83.59375 C 34.425781 83.550781 34.285156 83.503906 34.144531 83.460938 C 34.0625 83.433594 33.984375 83.410156 33.902344 83.382812 C 33.691406 83.300781 33.691406 83.300781 33.496094 83.105469 C 33.527344 83.074219 33.5625 83.039062 33.59375 83.007812 Z M 33.59375 83.007812" style="stroke:none;fill-rule:nonzero;fill:rgb(17.254902%,16.470589%,14.117648%);fill-opacity:1;"/>
<path d="M 20.019531 71.191406 C 20.335938 71.46875 20.460938 71.648438 20.507812 72.070312 C 20.429688 72.007812 20.355469 71.941406 20.277344 71.875 C 20.046875 71.660156 20.046875 71.660156 19.824219 71.679688 C 19.910156 71.300781 19.910156 71.300781 20.019531 71.191406 Z M 20.019531 71.191406" style="stroke:none;fill-rule:nonzero;fill:rgb(16.470589%,15.686275%,12.941177%);fill-opacity:1;"/>
<path d="M 82.910156 66.40625 C 82.976562 66.40625 83.039062 66.40625 83.105469 66.40625 C 82.976562 66.820312 82.816406 67.195312 82.617188 67.578125 C 82.585938 67.578125 82.554688 67.578125 82.519531 67.578125 C 82.605469 66.917969 82.605469 66.917969 82.714844 66.699219 C 82.78125 66.699219 82.84375 66.699219 82.910156 66.699219 C 82.910156 66.601562 82.910156 66.507812 82.910156 66.40625 Z M 82.910156 66.40625" style="stroke:none;fill-rule:nonzero;fill:rgb(16.470589%,15.686275%,13.333334%);fill-opacity:1;"/>
<path d="M 14.355469 59.375 C 14.386719 59.4375 14.421875 59.503906 14.453125 59.570312 C 14.515625 59.570312 14.582031 59.570312 14.648438 59.570312 C 14.757812 60.035156 14.757812 60.035156 14.648438 60.253906 C 14.710938 60.285156 14.777344 60.320312 14.84375 60.351562 C 14.746094 60.496094 14.746094 60.496094 14.648438 60.644531 C 14.636719 60.550781 14.625 60.457031 14.613281 60.359375 C 14.589844 60.257812 14.570312 60.160156 14.550781 60.058594 C 14.484375 60.027344 14.421875 59.992188 14.355469 59.960938 C 14.355469 59.765625 14.355469 59.574219 14.355469 59.375 Z M 14.355469 59.375" style="stroke:none;fill-rule:nonzero;fill:rgb(20%,19.215687%,16.078432%);fill-opacity:1;"/>
<path d="M 17.773438 32.03125 C 17.898438 32.328125 17.871094 32.425781 17.75 32.734375 C 17.578125 33.007812 17.578125 33.007812 17.285156 33.105469 C 17.40625 32.710938 17.546875 32.378906 17.773438 32.03125 Z M 17.773438 32.03125" style="stroke:none;fill-rule:nonzero;fill:rgb(18.82353%,17.647059%,15.686275%);fill-opacity:1;"/>
<path d="M 72.65625 20.703125 C 73 20.894531 73.265625 21.097656 73.535156 21.386719 C 73.371094 21.464844 73.371094 21.464844 73.144531 21.484375 C 72.875 21.265625 72.875 21.265625 72.65625 20.996094 C 72.65625 20.898438 72.65625 20.804688 72.65625 20.703125 Z M 72.65625 20.703125" style="stroke:none;fill-rule:nonzero;fill:rgb(15.686275%,14.901961%,12.941177%);fill-opacity:1;"/>
<path d="M 70.3125 19.042969 C 70.746094 19.179688 70.984375 19.394531 71.289062 19.726562 C 71.074219 19.761719 71.074219 19.761719 70.800781 19.726562 C 70.601562 19.546875 70.46875 19.359375 70.3125 19.140625 C 70.3125 19.109375 70.3125 19.078125 70.3125 19.042969 Z M 70.3125 19.042969" style="stroke:none;fill-rule:nonzero;fill:rgb(18.431373%,17.647059%,14.509805%);fill-opacity:1;"/>
<path d="M 75 77.050781 C 74.863281 77.378906 74.710938 77.539062 74.414062 77.734375 C 74.351562 77.703125 74.285156 77.671875 74.21875 77.636719 C 74.34375 77.265625 74.589844 77.050781 75 77.050781 Z M 75 77.050781" style="stroke:none;fill-rule:nonzero;fill:rgb(11.764706%,11.372549%,9.411765%);fill-opacity:1;"/>
<path d="M 83.105469 33.300781 C 83.394531 33.628906 83.488281 33.953125 83.59375 34.375 C 83.496094 34.34375 83.398438 34.3125 83.300781 34.277344 C 83.332031 34.179688 83.367188 34.085938 83.398438 33.984375 C 83.300781 33.953125 83.203125 33.921875 83.105469 33.886719 C 83.007812 33.59375 83.007812 33.59375 83.105469 33.300781 Z M 83.105469 33.300781" style="stroke:none;fill-rule:nonzero;fill:rgb(16.862746%,16.078432%,14.117648%);fill-opacity:1;"/>
<path d="M 15.234375 62.207031 C 15.332031 62.238281 15.429688 62.273438 15.527344 62.304688 C 15.644531 62.652344 15.644531 62.652344 15.722656 62.988281 C 15.65625 63.054688 15.59375 63.117188 15.527344 63.183594 C 15.234375 62.535156 15.234375 62.535156 15.234375 62.207031 Z M 15.234375 62.207031" style="stroke:none;fill-rule:nonzero;fill:rgb(16.078432%,15.294118%,12.941177%);fill-opacity:1;"/>
<path d="M 21.191406 26.855469 C 21.222656 26.953125 21.257812 27.046875 21.289062 27.148438 C 20.976562 27.707031 20.976562 27.707031 20.605469 27.832031 C 20.738281 27.441406 20.921875 27.167969 21.191406 26.855469 Z M 21.191406 26.855469" style="stroke:none;fill-rule:nonzero;fill:rgb(18.82353%,18.039216%,15.686275%);fill-opacity:1;"/>
<path d="M 66.992188 17.089844 C 67.359375 17.195312 67.625 17.277344 67.871094 17.578125 C 67.773438 17.625 67.773438 17.625 67.675781 17.675781 C 67.675781 17.609375 67.675781 17.546875 67.675781 17.480469 C 67.578125 17.511719 67.484375 17.546875 67.382812 17.578125 C 67.121094 17.390625 67.121094 17.390625 66.894531 17.1875 C 66.925781 17.15625 66.960938 17.125 66.992188 17.089844 Z M 66.992188 17.089844" style="stroke:none;fill-rule:nonzero;fill:rgb(16.862746%,16.078432%,14.117648%);fill-opacity:1;"/>
<path d="M 47.167969 86.621094 C 47.167969 86.6875 47.167969 86.75 47.167969 86.816406 C 47.328125 86.816406 47.492188 86.816406 47.65625 86.816406 C 47.65625 86.847656 47.65625 86.882812 47.65625 86.914062 C 47.5 86.917969 47.34375 86.921875 47.1875 86.925781 C 47.097656 86.929688 47.011719 86.929688 46.921875 86.933594 C 46.679688 86.914062 46.679688 86.914062 46.386719 86.71875 C 46.65625 86.660156 46.890625 86.621094 47.167969 86.621094 Z M 47.167969 86.621094" style="stroke:none;fill-rule:nonzero;fill:rgb(22.352941%,20.784314%,17.254902%);fill-opacity:1;"/>
<path d="M 84.960938 61.71875 C 85.023438 61.71875 85.089844 61.71875 85.15625 61.71875 C 85.097656 62.066406 85.003906 62.371094 84.863281 62.695312 C 84.832031 62.695312 84.796875 62.695312 84.765625 62.695312 C 84.78125 62.550781 84.792969 62.40625 84.808594 62.261719 C 84.816406 62.179688 84.824219 62.101562 84.832031 62.019531 C 84.863281 61.816406 84.863281 61.816406 84.960938 61.71875 Z M 84.960938 61.71875" style="stroke:none;fill-rule:nonzero;fill:rgb(17.254902%,16.078432%,14.509805%);fill-opacity:1;"/>
<path d="M 33.300781 43.359375 C 33.515625 43.679688 33.59375 43.964844 33.691406 44.335938 C 33.59375 44.304688 33.5 44.273438 33.398438 44.238281 C 33.398438 44.140625 33.398438 44.046875 33.398438 43.945312 C 33.335938 43.945312 33.269531 43.945312 33.203125 43.945312 C 33.199219 43.78125 33.199219 43.621094 33.203125 43.457031 C 33.234375 43.425781 33.265625 43.390625 33.300781 43.359375 Z M 33.300781 43.359375" style="stroke:none;fill-rule:nonzero;fill:rgb(10.588235%,8.235294%,2.352941%);fill-opacity:1;"/>
<path d="M 45.800781 13.183594 C 45.703125 13.214844 45.609375 13.25 45.507812 13.28125 C 45.507812 13.34375 45.507812 13.410156 45.507812 13.476562 C 45.152344 13.445312 44.796875 13.414062 44.433594 13.378906 C 44.433594 13.347656 44.433594 13.3125 44.433594 13.28125 C 44.894531 13.207031 45.332031 13.175781 45.800781 13.183594 Z M 45.800781 13.183594" style="stroke:none;fill-rule:nonzero;fill:rgb(29.411766%,27.843139%,24.313726%);fill-opacity:1;"/>
<path d="M 36.816406 84.570312 C 37.441406 84.523438 37.441406 84.523438 37.738281 84.765625 C 37.8125 84.863281 37.8125 84.863281 37.890625 84.960938 C 37.519531 84.894531 37.171875 84.792969 36.816406 84.667969 C 36.816406 84.636719 36.816406 84.601562 36.816406 84.570312 Z M 36.816406 84.570312" style="stroke:none;fill-rule:nonzero;fill:rgb(20.784314%,19.607843%,16.470589%);fill-opacity:1;"/>
<path d="M 68.457031 82.03125 C 67.953125 82.464844 67.953125 82.464844 67.578125 82.519531 C 67.738281 82.035156 67.992188 82.007812 68.457031 82.03125 Z M 68.457031 82.03125" style="stroke:none;fill-rule:nonzero;fill:rgb(16.078432%,14.901961%,12.941177%);fill-opacity:1;"/>
<path d="M 42.96875 37.304688 C 43.03125 37.335938 43.097656 37.367188 43.164062 37.402344 C 43.132812 37.691406 43.101562 37.984375 43.066406 38.28125 C 42.96875 38.21875 42.875 38.152344 42.773438 38.085938 C 42.859375 37.414062 42.859375 37.414062 42.96875 37.304688 Z M 42.96875 37.304688" style="stroke:none;fill-rule:nonzero;fill:rgb(8.627451%,7.058824%,2.745098%);fill-opacity:1;"/>
<path d="M 42.675781 85.9375 C 42.964844 85.984375 42.964844 85.984375 43.261719 86.035156 C 43.164062 86.179688 43.164062 86.179688 43.066406 86.328125 C 42.808594 86.347656 42.808594 86.347656 42.578125 86.328125 C 42.546875 86.265625 42.515625 86.199219 42.480469 86.132812 C 42.546875 86.132812 42.609375 86.132812 42.675781 86.132812 C 42.675781 86.070312 42.675781 86.003906 42.675781 85.9375 Z M 42.675781 85.9375" style="stroke:none;fill-rule:nonzero;fill:rgb(14.901961%,14.117648%,11.764706%);fill-opacity:1;"/>
<path d="M 86.035156 41.113281 C 86.199219 41.402344 86.261719 41.636719 86.292969 41.96875 C 86.296875 42.046875 86.304688 42.125 86.3125 42.203125 C 86.320312 42.261719 86.324219 42.320312 86.328125 42.382812 C 86.296875 42.320312 86.269531 42.261719 86.238281 42.199219 C 86.136719 41.992188 86.136719 41.992188 86.015625 41.804688 C 85.914062 41.542969 85.960938 41.378906 86.035156 41.113281 Z M 86.035156 41.113281" style="stroke:none;fill-rule:nonzero;fill:rgb(24.313726%,23.529412%,20.392157%);fill-opacity:1;"/>
<path d="M 71.191406 79.980469 C 71.410156 80.003906 71.410156 80.003906 71.582031 80.078125 C 71.355469 80.28125 71.355469 80.28125 71.09375 80.46875 C 70.996094 80.4375 70.898438 80.40625 70.800781 80.371094 C 70.972656 80.167969 70.972656 80.167969 71.191406 79.980469 Z M 71.191406 79.980469" style="stroke:none;fill-rule:nonzero;fill:rgb(16.078432%,14.901961%,12.941177%);fill-opacity:1;"/>
<path d="M 20.703125 72.363281 C 20.886719 72.382812 20.886719 72.382812 21.09375 72.460938 C 21.222656 72.699219 21.222656 72.699219 21.289062 72.949219 C 21.257812 73.015625 21.226562 73.078125 21.191406 73.144531 C 20.703125 72.582031 20.703125 72.582031 20.703125 72.363281 Z M 20.703125 72.363281" style="stroke:none;fill-rule:nonzero;fill:rgb(19.607843%,18.431373%,15.294118%);fill-opacity:1;"/>
<path d="M 84.179688 63.671875 C 84.242188 63.703125 84.308594 63.734375 84.375 63.769531 C 84.277344 64.058594 84.179688 64.351562 84.082031 64.648438 C 84.015625 64.519531 83.953125 64.390625 83.886719 64.257812 C 83.917969 64.195312 83.953125 64.128906 83.984375 64.0625 C 84.046875 64.0625 84.113281 64.0625 84.179688 64.0625 C 84.179688 63.933594 84.179688 63.804688 84.179688 63.671875 Z M 84.179688 63.671875" style="stroke:none;fill-rule:nonzero;fill:rgb(18.039216%,17.254902%,15.294118%);fill-opacity:1;"/>
<path d="M 52.832031 44.726562 C 53.480469 44.703125 53.480469 44.703125 53.808594 44.921875 C 53.449219 44.996094 53.179688 45.042969 52.832031 44.921875 C 52.832031 44.859375 52.832031 44.792969 52.832031 44.726562 Z M 52.832031 44.726562" style="stroke:none;fill-rule:nonzero;fill:rgb(8.235294%,6.666667%,2.745098%);fill-opacity:1;"/>
<path d="M 13.476562 44.042969 C 13.507812 44.042969 13.539062 44.042969 13.574219 44.042969 C 13.664062 44.570312 13.691406 44.902344 13.476562 45.410156 C 13.445312 45.410156 13.414062 45.410156 13.378906 45.410156 C 13.339844 45.214844 13.308594 45.019531 13.28125 44.824219 C 13.3125 44.792969 13.34375 44.757812 13.378906 44.726562 C 13.414062 44.5 13.449219 44.269531 13.476562 44.042969 Z M 13.476562 44.042969" style="stroke:none;fill-rule:nonzero;fill:rgb(29.411766%,27.843139%,24.705882%);fill-opacity:1;"/>
<path d="M 26.269531 78.320312 C 26.734375 78.394531 26.734375 78.394531 26.953125 78.613281 C 26.921875 78.710938 26.890625 78.804688 26.855469 78.90625 C 26.65625 78.746094 26.460938 78.582031 26.269531 78.417969 C 26.269531 78.386719 26.269531 78.351562 26.269531 78.320312 Z M 26.269531 78.320312" style="stroke:none;fill-rule:nonzero;fill:rgb(16.078432%,15.294118%,12.941177%);fill-opacity:1;"/>
<path d="M 77.441406 74.414062 C 77.472656 74.511719 77.507812 74.609375 77.539062 74.707031 C 77.378906 74.835938 77.21875 74.964844 77.050781 75.097656 C 76.984375 75.03125 76.921875 74.96875 76.855469 74.902344 C 77.046875 74.742188 77.242188 74.578125 77.441406 74.414062 Z M 77.441406 74.414062" style="stroke:none;fill-rule:nonzero;fill:rgb(11.764706%,10.980392%,9.411765%);fill-opacity:1;"/>
<path d="M 46.386719 65.332031 C 46.617188 65.3125 46.617188 65.3125 46.875 65.332031 C 46.9375 65.429688 47.003906 65.523438 47.070312 65.625 C 46.875 65.625 46.683594 65.625 46.484375 65.625 C 46.453125 65.527344 46.421875 65.429688 46.386719 65.332031 Z M 46.386719 65.332031" style="stroke:none;fill-rule:nonzero;fill:rgb(9.411765%,7.843138%,3.529412%);fill-opacity:1;"/>
<path d="M 16.308594 64.941406 C 16.40625 64.941406 16.5 64.941406 16.601562 64.941406 C 16.632812 65.199219 16.664062 65.457031 16.699219 65.722656 C 16.488281 65.464844 16.367188 65.269531 16.308594 64.941406 Z M 16.308594 64.941406" style="stroke:none;fill-rule:nonzero;fill:rgb(18.431373%,17.647059%,14.901961%);fill-opacity:1;"/>
<path d="M 84.765625 37.109375 C 84.957031 37.394531 85.003906 37.5625 85.058594 37.890625 C 84.960938 37.859375 84.867188 37.828125 84.765625 37.792969 C 84.652344 37.503906 84.664062 37.414062 84.765625 37.109375 Z M 84.765625 37.109375" style="stroke:none;fill-rule:nonzero;fill:rgb(17.647059%,16.862746%,14.901961%);fill-opacity:1;"/>
<path d="M 49.316406 87.109375 C 49.542969 87.109375 49.765625 87.109375 50 87.109375 C 50 87.140625 50 87.171875 50 87.207031 C 49.773438 87.207031 49.546875 87.207031 49.316406 87.207031 C 49.316406 87.175781 49.316406 87.140625 49.316406 87.109375 Z M 49.316406 87.109375" style="stroke:none;fill-rule:nonzero;fill:rgb(25.882354%,24.705882%,19.607843%);fill-opacity:1;"/>
<path d="M 17.96875 30.46875 C 18.03125 30.53125 18.097656 30.597656 18.164062 30.664062 C 18.128906 30.871094 18.128906 30.871094 18.066406 31.054688 C 18.035156 30.859375 18 30.667969 17.96875 30.46875 Z M 17.96875 30.46875" style="stroke:none;fill-rule:nonzero;fill:rgb(27.058825%,25.490198%,20.784314%);fill-opacity:1;"/>
<path d="M 40.09375 14.054688 C 40.210938 14.058594 40.210938 14.058594 40.332031 14.0625 C 40.148438 14.167969 40.148438 14.167969 39.941406 14.257812 C 39.875 14.226562 39.8125 14.195312 39.746094 14.160156 C 39.84375 14.0625 39.84375 14.0625 40.09375 14.054688 Z M 40.09375 14.054688" style="stroke:none;fill-rule:nonzero;fill:rgb(25.490198%,23.921569%,20.784314%);fill-opacity:1;"/>
<path d="M 43.164062 13.28125 C 43.359375 13.28125 43.550781 13.28125 43.75 13.28125 C 43.75 13.3125 43.75 13.34375 43.75 13.378906 C 43.554688 13.410156 43.363281 13.445312 43.164062 13.476562 C 43.164062 13.414062 43.164062 13.347656 43.164062 13.28125 Z M 43.164062 13.28125" style="stroke:none;fill-rule:nonzero;fill:rgb(26.666668%,25.490198%,20.784314%);fill-opacity:1;"/>
<path d="M 13.378906 55.957031 C 13.410156 56.085938 13.445312 56.214844 13.476562 56.347656 C 13.414062 56.316406 13.347656 56.28125 13.28125 56.25 C 13.3125 56.152344 13.34375 56.054688 13.378906 55.957031 Z M 13.378906 55.957031" style="stroke:none;fill-rule:nonzero;fill:rgb(26.666668%,25.490198%,20.392157%);fill-opacity:1;"/>
<path d="M 66.015625 16.40625 C 66.144531 16.40625 66.273438 16.40625 66.40625 16.40625 C 66.40625 16.46875 66.40625 16.535156 66.40625 16.601562 C 66.277344 16.539062 66.148438 16.472656 66.015625 16.40625 Z M 66.015625 16.40625" style="stroke:none;fill-rule:nonzero;fill:rgb(23.529412%,22.352941%,19.215687%);fill-opacity:1;"/>
<path d="M 37.5 14.84375 C 37.695312 14.890625 37.695312 14.890625 37.890625 14.941406 C 37.730469 14.972656 37.570312 15.007812 37.402344 15.039062 C 37.433594 14.976562 37.46875 14.910156 37.5 14.84375 Z M 37.5 14.84375" style="stroke:none;fill-rule:nonzero;fill:rgb(25.490198%,23.529412%,19.607843%);fill-opacity:1;"/>
<path d="M 28.222656 80.078125 C 28.289062 80.078125 28.351562 80.078125 28.417969 80.078125 C 28.386719 80.175781 28.351562 80.273438 28.320312 80.371094 C 28.289062 80.273438 28.257812 80.179688 28.222656 80.078125 Z M 28.222656 80.078125" style="stroke:none;fill-rule:nonzero;fill:rgb(24.705882%,22.745098%,18.039216%);fill-opacity:1;"/>
<path d="M 23.144531 24.21875 C 23.210938 24.25 23.273438 24.28125 23.339844 24.316406 C 23.210938 24.347656 23.082031 24.382812 22.949219 24.414062 C 23.015625 24.351562 23.078125 24.285156 23.144531 24.21875 Z M 23.144531 24.21875" style="stroke:none;fill-rule:nonzero;fill:rgb(24.313726%,23.529412%,19.215687%);fill-opacity:1;"/>
<path d="M 39.160156 85.546875 C 39.257812 85.578125 39.351562 85.609375 39.453125 85.644531 C 39.355469 85.675781 39.257812 85.710938 39.160156 85.742188 C 39.160156 85.679688 39.160156 85.613281 39.160156 85.546875 Z M 39.160156 85.546875" style="stroke:none;fill-rule:nonzero;fill:rgb(25.490198%,23.529412%,19.215687%);fill-opacity:1;"/>
<path d="M 17.1875 67.1875 C 17.25 67.25 17.316406 67.316406 17.382812 67.382812 C 17.285156 67.429688 17.285156 67.429688 17.1875 67.480469 C 17.1875 67.382812 17.1875 67.289062 17.1875 67.1875 Z M 17.1875 67.1875" style="stroke:none;fill-rule:nonzero;fill:rgb(25.098041%,23.529412%,19.215687%);fill-opacity:1;"/>
<path d="M 19.628906 28.125 C 19.695312 28.15625 19.757812 28.1875 19.824219 28.222656 C 19.726562 28.222656 19.632812 28.222656 19.53125 28.222656 C 19.5625 28.191406 19.59375 28.15625 19.628906 28.125 Z M 19.628906 28.125" style="stroke:none;fill-rule:nonzero;fill:rgb(26.274511%,25.098041%,20%);fill-opacity:1;"/>
<path d="M 21.09375 26.5625 C 21.191406 26.59375 21.289062 26.625 21.386719 26.660156 C 21.289062 26.660156 21.195312 26.660156 21.09375 26.660156 C 21.09375 26.628906 21.09375 26.59375 21.09375 26.5625 Z M 21.09375 26.5625" style="stroke:none;fill-rule:nonzero;fill:rgb(24.313726%,22.745098%,19.215687%);fill-opacity:1;"/>
<path d="M 23.4375 23.4375 C 23.5 23.4375 23.566406 23.4375 23.632812 23.4375 C 23.632812 23.5 23.632812 23.566406 23.632812 23.632812 C 23.570312 23.632812 23.503906 23.632812 23.4375 23.632812 C 23.4375 23.570312 23.4375 23.503906 23.4375 23.4375 Z M 23.4375 23.4375" style="stroke:none;fill-rule:nonzero;fill:rgb(25.490198%,24.313726%,20%);fill-opacity:1;"/>
<path d="M 62.304688 14.84375 C 62.402344 14.84375 62.5 14.84375 62.597656 14.84375 C 62.566406 14.90625 62.53125 14.972656 62.5 15.039062 C 62.4375 14.976562 62.371094 14.910156 62.304688 14.84375 Z M 62.304688 14.84375" style="stroke:none;fill-rule:nonzero;fill:rgb(24.313726%,22.745098%,18.431373%);fill-opacity:1;"/>
<path d="M 48.144531 87.109375 C 48.4375 87.207031 48.4375 87.207031 48.4375 87.207031 Z M 48.144531 87.109375" style="stroke:none;fill-rule:nonzero;fill:rgb(26.274511%,24.705882%,19.607843%);fill-opacity:1;"/>
<path d="M 46.875 87.011719 C 47.167969 87.109375 47.167969 87.109375 47.167969 87.109375 Z M 46.875 87.011719" style="stroke:none;fill-rule:nonzero;fill:rgb(25.882354%,23.921569%,19.607843%);fill-opacity:1;"/>
<path d="M 56.152344 86.621094 C 56.445312 86.71875 56.445312 86.71875 56.445312 86.71875 Z M 56.152344 86.621094" style="stroke:none;fill-rule:nonzero;fill:rgb(25.098041%,23.137255%,18.82353%);fill-opacity:1;"/>
<path d="M 56.542969 86.523438 C 56.609375 86.523438 56.671875 86.523438 56.738281 86.523438 C 56.707031 86.585938 56.671875 86.652344 56.640625 86.71875 C 56.609375 86.65625 56.578125 86.589844 56.542969 86.523438 Z M 56.542969 86.523438" style="stroke:none;fill-rule:nonzero;fill:rgb(25.098041%,22.745098%,18.82353%);fill-opacity:1;"/>
<path d="M 30.46875 81.835938 C 30.566406 81.882812 30.566406 81.882812 30.664062 81.933594 C 30.566406 81.980469 30.566406 81.980469 30.46875 82.03125 C 30.46875 81.96875 30.46875 81.902344 30.46875 81.835938 Z M 30.46875 81.835938" style="stroke:none;fill-rule:nonzero;fill:rgb(25.882354%,24.313726%,19.607843%);fill-opacity:1;"/>
<path d="M 22.851562 75.292969 C 22.914062 75.292969 22.980469 75.292969 23.046875 75.292969 C 23.015625 75.359375 22.984375 75.421875 22.949219 75.488281 C 22.917969 75.421875 22.882812 75.359375 22.851562 75.292969 Z M 22.851562 75.292969" style="stroke:none;fill-rule:nonzero;fill:rgb(24.705882%,23.137255%,19.215687%);fill-opacity:1;"/>
<path d="M 20.410156 72.265625 C 20.476562 72.328125 20.539062 72.394531 20.605469 72.460938 C 20.539062 72.460938 20.476562 72.460938 20.410156 72.460938 C 20.410156 72.398438 20.410156 72.332031 20.410156 72.265625 Z M 20.410156 72.265625" style="stroke:none;fill-rule:nonzero;fill:rgb(25.098041%,22.745098%,18.82353%);fill-opacity:1;"/>
<path d="M 19.53125 71.191406 C 19.628906 71.238281 19.628906 71.238281 19.726562 71.289062 C 19.628906 71.335938 19.628906 71.335938 19.53125 71.386719 C 19.53125 71.320312 19.53125 71.257812 19.53125 71.191406 Z M 19.53125 71.191406" style="stroke:none;fill-rule:nonzero;fill:rgb(25.098041%,23.137255%,19.607843%);fill-opacity:1;"/>
<path d="M 16.503906 65.917969 C 16.570312 65.984375 16.632812 66.046875 16.699219 66.113281 C 16.632812 66.113281 16.570312 66.113281 16.503906 66.113281 C 16.503906 66.046875 16.503906 65.984375 16.503906 65.917969 Z M 16.503906 65.917969" style="stroke:none;fill-rule:nonzero;fill:rgb(25.098041%,23.921569%,19.215687%);fill-opacity:1;"/>
<path d="M 74.804688 21.875 C 74.867188 21.875 74.933594 21.875 75 21.875 C 74.96875 21.9375 74.9375 22.003906 74.902344 22.070312 C 74.871094 22.007812 74.835938 21.941406 74.804688 21.875 Z M 74.804688 21.875" style="stroke:none;fill-rule:nonzero;fill:rgb(25.490198%,23.529412%,19.607843%);fill-opacity:1;"/>
<path d="M 74.023438 21.191406 C 74.121094 21.238281 74.121094 21.238281 74.21875 21.289062 C 74.121094 21.335938 74.121094 21.335938 74.023438 21.386719 C 74.023438 21.320312 74.023438 21.257812 74.023438 21.191406 Z M 74.023438 21.191406" style="stroke:none;fill-rule:nonzero;fill:rgb(25.882354%,24.705882%,20.784314%);fill-opacity:1;"/>
<path d="M 57.03125 13.28125 C 57.09375 13.34375 57.160156 13.410156 57.226562 13.476562 C 57.164062 13.476562 57.097656 13.476562 57.03125 13.476562 C 57.03125 13.414062 57.03125 13.347656 57.03125 13.28125 Z M 57.03125 13.28125" style="stroke:none;fill-rule:nonzero;fill:rgb(26.666668%,25.098041%,20%);fill-opacity:1;"/>
<path d="M 52.929688 87.011719 C 53.125 87.109375 53.125 87.109375 53.125 87.109375 Z M 52.929688 87.011719" style="stroke:none;fill-rule:nonzero;fill:rgb(25.882354%,24.313726%,19.607843%);fill-opacity:1;"/>
<path d="M 42.285156 86.328125 C 42.480469 86.425781 42.480469 86.425781 42.480469 86.425781 Z M 42.285156 86.328125" style="stroke:none;fill-rule:nonzero;fill:rgb(24.705882%,23.137255%,18.82353%);fill-opacity:1;"/>
<path d="M 59.765625 85.839844 C 59.960938 85.9375 59.960938 85.9375 59.960938 85.9375 Z M 59.765625 85.839844" style="stroke:none;fill-rule:nonzero;fill:rgb(25.098041%,22.352941%,18.82353%);fill-opacity:1;"/>
<path d="M 39.746094 85.742188 C 39.941406 85.839844 39.941406 85.839844 39.941406 85.839844 Z M 39.746094 85.742188" style="stroke:none;fill-rule:nonzero;fill:rgb(25.882354%,24.313726%,20.392157%);fill-opacity:1;"/>
<path d="M 62.109375 85.058594 C 62.304688 85.15625 62.304688 85.15625 62.304688 85.15625 Z M 62.109375 85.058594" style="stroke:none;fill-rule:nonzero;fill:rgb(24.705882%,22.352941%,18.431373%);fill-opacity:1;"/>
<path d="M 32.03125 82.519531 C 32.226562 82.617188 32.226562 82.617188 32.226562 82.617188 Z M 32.03125 82.519531" style="stroke:none;fill-rule:nonzero;fill:rgb(24.705882%,22.352941%,18.82353%);fill-opacity:1;"/>
<path d="M 30.859375 81.835938 C 31.054688 81.933594 31.054688 81.933594 31.054688 81.933594 Z M 30.859375 81.835938" style="stroke:none;fill-rule:nonzero;fill:rgb(24.705882%,22.745098%,18.82353%);fill-opacity:1;"/>
<path d="M 69.140625 81.738281 C 69.335938 81.835938 69.335938 81.835938 69.335938 81.835938 Z M 69.140625 81.738281" style="stroke:none;fill-rule:nonzero;fill:rgb(24.313726%,23.137255%,18.82353%);fill-opacity:1;"/>
<path d="M 30.664062 81.738281 C 30.859375 81.835938 30.859375 81.835938 30.859375 81.835938 Z M 30.664062 81.738281" style="stroke:none;fill-rule:nonzero;fill:rgb(25.098041%,23.137255%,19.607843%);fill-opacity:1;"/>
<path d="M 27.539062 79.589844 C 27.734375 79.6875 27.734375 79.6875 27.734375 79.6875 Z M 27.539062 79.589844" style="stroke:none;fill-rule:nonzero;fill:rgb(25.098041%,22.745098%,18.82353%);fill-opacity:1;"/>
<path d="M 23.828125 76.367188 C 24.023438 76.464844 24.023438 76.464844 24.023438 76.464844 Z M 23.828125 76.367188" style="stroke:none;fill-rule:nonzero;fill:rgb(25.098041%,23.529412%,18.82353%);fill-opacity:1;"/>
<path d="M 13.28125 43.261719 C 13.476562 43.359375 13.476562 43.359375 13.476562 43.359375 Z M 13.28125 43.261719" style="stroke:none;fill-rule:nonzero;fill:rgb(26.666668%,25.490198%,21.176471%);fill-opacity:1;"/>
<path d="M 20.3125 27.34375 C 20.507812 27.441406 20.507812 27.441406 20.507812 27.441406 Z M 20.3125 27.34375" style="stroke:none;fill-rule:nonzero;fill:rgb(25.490198%,23.921569%,20.392157%);fill-opacity:1;"/>
<path d="M 21.875 25.292969 C 22.070312 25.390625 22.070312 25.390625 22.070312 25.390625 Z M 21.875 25.292969" style="stroke:none;fill-rule:nonzero;fill:rgb(27.058825%,24.705882%,20.392157%);fill-opacity:1;"/>
<path d="M 77.832031 25.097656 C 78.027344 25.195312 78.027344 25.195312 78.027344 25.195312 Z M 77.832031 25.097656" style="stroke:none;fill-rule:nonzero;fill:rgb(24.313726%,23.137255%,19.607843%);fill-opacity:1;"/>
<path d="M 25.683594 21.875 C 25.878906 21.972656 25.878906 21.972656 25.878906 21.972656 Z M 25.683594 21.875" style="stroke:none;fill-rule:nonzero;fill:rgb(26.666668%,25.490198%,21.568628%);fill-opacity:1;"/>
<path d="M 73.4375 21.09375 C 73.632812 21.191406 73.632812 21.191406 73.632812 21.191406 Z M 73.4375 21.09375" style="stroke:none;fill-rule:nonzero;fill:rgb(25.098041%,23.921569%,19.215687%);fill-opacity:1;"/>
<path d="M 28.613281 19.53125 C 28.808594 19.628906 28.808594 19.628906 28.808594 19.628906 Z M 28.613281 19.53125" style="stroke:none;fill-rule:nonzero;fill:rgb(25.882354%,23.529412%,19.607843%);fill-opacity:1;"/>
<path d="M 29.785156 18.75 C 29.980469 18.847656 29.980469 18.847656 29.980469 18.847656 Z M 29.785156 18.75" style="stroke:none;fill-rule:nonzero;fill:rgb(25.098041%,23.529412%,20%);fill-opacity:1;"/>
<path d="M 31.054688 17.96875 C 31.25 18.066406 31.25 18.066406 31.25 18.066406 Z M 31.054688 17.96875" style="stroke:none;fill-rule:nonzero;fill:rgb(25.490198%,24.313726%,20%);fill-opacity:1;"/>
<path d="M 67.773438 17.1875 C 67.96875 17.285156 67.96875 17.285156 67.96875 17.285156 Z M 67.773438 17.1875" style="stroke:none;fill-rule:nonzero;fill:rgb(23.921569%,22.745098%,19.215687%);fill-opacity:1;"/>
<path d="M 62.890625 15.039062 C 63.085938 15.136719 63.085938 15.136719 63.085938 15.136719 Z M 62.890625 15.039062" style="stroke:none;fill-rule:nonzero;fill:rgb(25.882354%,24.705882%,20.392157%);fill-opacity:1;"/>
<path d="M 39.0625 14.355469 C 39.257812 14.453125 39.257812 14.453125 39.257812 14.453125 Z M 39.0625 14.355469" style="stroke:none;fill-rule:nonzero;fill:rgb(26.274511%,24.705882%,20.392157%);fill-opacity:1;"/>
<path d="M 57.910156 13.574219 C 58.105469 13.671875 58.105469 13.671875 58.105469 13.671875 Z M 57.910156 13.574219" style="stroke:none;fill-rule:nonzero;fill:rgb(27.058825%,25.098041%,20%);fill-opacity:1;"/>
<path d="M 57.421875 13.476562 C 57.617188 13.574219 57.617188 13.574219 57.617188 13.574219 Z M 57.421875 13.476562" style="stroke:none;fill-rule:nonzero;fill:rgb(25.882354%,24.313726%,20.392157%);fill-opacity:1;"/>
<path d="M 49.707031 12.695312 C 49.902344 12.792969 49.902344 12.792969 49.902344 12.792969 Z M 49.707031 12.695312" style="stroke:none;fill-rule:nonzero;fill:rgb(26.666668%,25.098041%,21.176471%);fill-opacity:1;"/>
</g>
</svg>